<svg width="48" height="48" viewBox="0 0 48 48" fill="none" xmlns="http://www.w3.org/2000/svg">
<g clip-path="url(#clip0_2_53)">
<path d="M45 45.54H36C35.7015 45.54 35.46 45.2985 35.46 45V41.04H29.04V45C29.04 45.2985 28.7985 45.54 28.5 45.54H19.5C19.2015 45.54 18.96 45.2985 18.96 45V41.04H12.54V45C12.54 45.2985 12.2985 45.54 12 45.54H2.99996C2.70146 45.54 2.45996 45.2985 2.45996 45V36C2.45996 35.7015 2.70146 35.46 2.99996 35.46H6.95996V29.04H2.99996C2.70146 29.04 2.45996 28.7985 2.45996 28.5V19.5C2.45996 19.2015 2.70146 18.96 2.99996 18.96H6.95996V12.54H2.99996C2.70146 12.54 2.45996 12.2985 2.45996 12V3.00002C2.45996 2.70152 2.70146 2.46002 2.99996 2.46002H12C12.2985 2.46002 12.54 2.70152 12.54 3.00002V6.96002H18.96V3.00002C18.96 2.70152 19.2015 2.46002 19.5 2.46002H28.5C28.7985 2.46002 29.04 2.70152 29.04 3.00002V6.96002H35.4585V3.00002C35.4585 2.70152 35.7 2.46002 35.9985 2.46002H44.9985C45.297 2.46002 45.5385 2.70152 45.5385 3.00002V12C45.5385 12.2985 45.297 12.54 44.9985 12.54H41.0385V18.96H45C45.2985 18.96 45.54 19.2015 45.54 19.5V28.5C45.54 28.7985 45.2985 29.04 45 29.04H41.04V35.4585H45C45.2985 35.4585 45.54 35.7 45.54 35.9985V44.9985C45.54 45.2985 45.2985 45.54 45 45.54ZM36.54 44.46H44.4585V36.54H36.54V44.46ZM20.04 44.46H27.96V36.54H20.04V44.46ZM3.53996 44.46H11.46V36.54H3.53996V44.46ZM29.04 39.96H35.4585V36C35.4585 35.7015 35.7 35.46 35.9985 35.46H39.9585V29.04H36C35.7015 29.04 35.46 28.7985 35.46 28.5V24.54H29.04V28.5C29.04 28.7985 28.7985 29.04 28.5 29.04H24.54V35.4585H28.5C28.7985 35.4585 29.04 35.7 29.04 35.9985V39.96ZM12.54 39.96H18.96V36C18.96 35.7015 19.2015 35.46 19.5 35.46H23.46V29.04H19.5C19.2015 29.04 18.96 28.7985 18.96 28.5V24.54H12.54V28.5C12.54 28.7985 12.2985 29.04 12 29.04H8.03996V35.4585H12C12.2985 35.4585 12.54 35.7 12.54 35.9985V39.96ZM40.5 27.96H44.46V20.04H36.54V27.96H40.5ZM24 27.96H27.96V20.04H20.04V27.96H24ZM7.49996 27.96H11.46V20.04H3.53996V27.96H7.49996ZM29.04 23.46H35.4585V19.5C35.4585 19.2015 35.7 18.96 35.9985 18.96H39.9585V12.54H36C35.7015 12.54 35.46 12.2985 35.46 12V8.04002H29.04V12C29.04 12.2985 28.7985 12.54 28.5 12.54H24.54V18.96H28.5C28.7985 18.96 29.04 19.2015 29.04 19.5V23.46ZM12.54 23.46H18.96V19.5C18.96 19.2015 19.2015 18.96 19.5 18.96H23.46V12.54H19.5C19.2015 12.54 18.96 12.2985 18.96 12V8.04002H12.54V12C12.54 12.2985 12.2985 12.54 12 12.54H8.03996V18.96H12C12.2985 18.96 12.54 19.2015 12.54 19.5V23.46ZM40.5 11.46H44.46V3.54002H36.54V11.46H40.5ZM24 11.46H27.96V3.54002H20.04V11.46H24ZM7.49996 11.46H11.46V3.54002H3.53996V11.46H7.49996Z" fill="#00ADB5"/>
</g>
<defs>
<clipPath id="clip0_2_53">
<rect width="48" height="48" fill="white"/>
</clipPath>
</defs>
</svg>
